<svg width="32" height="32" viewBox="0 0 32 32" fill="none" xmlns="http://www.w3.org/2000/svg">
<path d="M15.9993 27.2961C17.4147 28.5629 19.2837 29.3332 21.3327 29.3332C25.751 29.3332 29.3327 25.7515 29.3327 21.3332C29.3327 17.6439 26.8354 14.538 23.4391 13.6134M8.55959 13.6134C5.16326 14.5379 2.66602 17.6439 2.66602 21.3332C2.66602 25.7514 6.24774 29.3332 10.666 29.3332C15.0843 29.3332 18.666 25.7514 18.666 21.3332C18.666 20.2925 18.4673 19.2983 18.1058 18.3863M23.9993 10.6665C23.9993 15.0848 20.4176 18.6665 15.9993 18.6665C11.5811 18.6665 7.99935 15.0848 7.99935 10.6665C7.99935 6.24823 11.5811 2.6665 15.9993 2.6665C20.4176 2.6665 23.9993 6.24823 23.9993 10.6665Z" stroke="#58595B" stroke-width="1.5" stroke-linecap="round" stroke-linejoin="round"/>
</svg>
