<svg width="24" height="24" viewBox="0 0 24 24" fill="none" xmlns="http://www.w3.org/2000/svg">
<path d="M19.5782 20.9314C20.0549 20.9334 20.4852 20.6429 20.6659 20.1977C20.8475 19.7516 20.7428 19.2395 20.4023 18.9022C20.124 18.6267 19.7282 18.5099 19.3473 18.5897C18.9663 18.6686 18.6495 18.9351 18.5014 19.2984C18.3544 19.6627 18.3948 20.077 18.611 20.4043C18.8261 20.7317 19.1894 20.9294 19.5782 20.9314ZM19.2881 19.4541C19.3641 19.3753 19.4687 19.3314 19.5782 19.3314C19.6878 19.3314 19.7924 19.3753 19.8684 19.4541C19.9463 19.532 19.9898 19.6388 19.9898 19.7496C19.9898 19.8604 19.9463 19.9662 19.8684 20.044C19.7055 20.2007 19.4509 20.2007 19.288 20.044C19.2101 19.9662 19.1657 19.8604 19.1647 19.7496C19.1647 19.6388 19.2081 19.533 19.2851 19.4541H19.2881ZM21.6222 6.049C21.7466 6.04301 21.8601 5.97613 21.9282 5.87033L23.9495 2.32593C24.0353 2.1762 24.0097 1.98656 23.8883 1.86378L22.4078 0.353574C22.2864 0.231801 22.0989 0.207845 21.9509 0.294683L18.4462 2.33889C18.3347 2.40277 18.2636 2.51955 18.2567 2.64831L18.1738 4.05868L12.9487 9.34296L10.4823 7.02327C10.881 5.72867 10.7853 4.33028 10.2139 3.1035C9.64241 1.87777 8.6357 0.913567 7.39515 0.40157C6.15354 -0.111475 4.76797 -0.13345 3.51148 0.338687C3.39008 0.382607 3.29928 0.486415 3.27165 0.61417C3.24302 0.742932 3.2825 0.876672 3.37528 0.969504L5.20708 2.82207C5.54067 3.14446 5.73214 3.58964 5.73709 4.05677C5.74204 4.52389 5.56141 4.97306 5.23472 5.30345C4.90803 5.63385 4.4639 5.8165 4.00201 5.81151C3.54011 5.80652 3.09993 5.61288 2.78114 5.2755L0.947367 3.42294C0.856565 3.32911 0.7253 3.28819 0.597986 3.31513C0.468693 3.34608 0.365061 3.4429 0.322634 3.57066C-0.137288 4.85028 -0.104719 6.25777 0.415409 7.51445C0.934555 8.77013 1.90276 9.78224 3.12648 10.3493C4.35131 10.9152 5.74103 10.995 7.02102 10.5718L8.13827 11.7906L0.628378 19.3935C0.487244 19.5412 0.487244 19.7758 0.628378 19.9245L4.52696 23.8882C4.59802 23.9591 4.69474 24 4.79443 24C4.8951 24 4.99182 23.9601 5.06288 23.8882L12.4078 16.4601L17.531 22.0638C18.0966 22.6836 18.8881 23.0429 19.7221 23.0579H19.7823C21.0397 23.0529 22.1668 22.2724 22.6247 21.0886C23.0837 19.9058 22.7817 18.5583 21.8618 17.6919L15.0834 11.3367L20.2274 6.12625L21.6222 6.049ZM11.8917 15.8967L4.7944 23.0744L1.42388 19.6688L8.65054 12.3602L11.1545 15.0972L11.8917 15.8967ZM22.0899 19.9243C22.1018 20.8905 21.5244 21.7639 20.6371 22.1222C19.7508 22.4806 18.7372 22.25 18.0877 21.5413L12.6959 15.6474L8.94059 11.5431L7.41178 9.86921H7.41277C7.33973 9.79135 7.23807 9.74744 7.13148 9.74744C7.08608 9.74644 7.04068 9.75542 6.99824 9.77239C5.95896 10.1766 4.80915 10.1856 3.76391 9.79634C2.71872 9.40807 1.84822 8.64947 1.31427 7.6603C0.781301 6.67213 0.620431 5.52127 0.863215 4.42126L2.24298 5.81666C2.69403 6.33369 3.33653 6.64014 4.01753 6.66209C4.69952 6.68405 5.3598 6.42154 5.84244 5.93443C6.32606 5.44834 6.58956 4.78157 6.56983 4.09186C6.55107 3.40214 6.25203 2.75134 5.74177 2.29319L4.363 0.882811C5.43977 0.642256 6.56689 0.802959 7.53694 1.33297C8.50712 1.86398 9.25722 2.73039 9.64806 3.77345C10.0399 4.8165 10.0468 5.96737 9.66879 7.01556C9.61747 7.16029 9.65596 7.32199 9.76748 7.4268L21.3465 18.2437C21.8134 18.6759 22.0818 19.2848 22.0897 19.9246L22.0899 19.9243ZM19.7933 5.49016L14.5247 10.8174L13.5368 9.89208L13.5141 9.86213L18.82 4.49609C18.8871 4.42822 18.9276 4.33639 18.9315 4.24056L19.0124 2.88906L22.0879 1.10038L23.1587 2.18338L21.3901 5.29364L20.0557 5.37549V5.37449C19.956 5.37648 19.8614 5.4173 19.7933 5.49016ZM8.77186 14.3027C8.84293 14.3746 8.88339 14.4714 8.88339 14.5732C8.88339 14.675 8.84293 14.7729 8.77186 14.8447L4.08775 19.5789C4.01768 19.6527 3.91997 19.6926 3.8193 19.6917C3.71863 19.6926 3.62289 19.6517 3.55183 19.5789C3.40576 19.4291 3.40576 19.1876 3.55183 19.0379L8.23594 14.3027C8.307 14.2298 8.40372 14.1899 8.5044 14.1899C8.60408 14.1899 8.7008 14.2299 8.77186 14.3027ZM4.87833 20.3794L9.56244 15.6412C9.71148 15.4935 9.94932 15.4935 10.0984 15.6412C10.1694 15.713 10.2099 15.8109 10.2099 15.9127C10.2099 16.0145 10.1694 16.1113 10.0984 16.1832L5.41426 20.9204C5.26621 21.0701 5.02637 21.0701 4.87833 20.9204C4.80628 20.8495 4.76681 20.7517 4.76681 20.6499C4.76681 20.5481 4.80628 20.4503 4.87833 20.3794Z" fill="#EB0D1C"/>
</svg>
