<svg width="32" height="32" viewBox="0 0 32 32" fill="none" xmlns="http://www.w3.org/2000/svg">
<path d="M22.1367 0C23.5511 0 24.837 0.577267 25.7676 1.50781C26.6979 2.43833 27.2744 3.72244 27.2744 5.1377V26.8623C27.2744 28.2766 26.6979 29.5617 25.7676 30.4922C24.837 31.4227 23.5521 32 22.1367 32H5.1377C3.72327 32 2.43836 31.4227 1.50781 30.4922C0.577268 29.5616 0 28.2777 0 26.8623V14.5732C1.02003e-05 13.8749 0.127191 13.2176 0.380859 12.6055C0.635535 11.9913 1.0112 11.4361 1.50586 10.9414L2.39258 10.0537L0.306641 6.38965C0.116675 6.09001 0.161526 5.68729 0.432617 5.43848L4.96777 1.2627C5.20874 1.02663 5.58796 0.976 5.8877 1.16211L9.21387 3.2334L10.9414 1.50586C11.4361 1.0112 11.9913 0.635535 12.6055 0.380859C13.2176 0.127191 13.8739 1.01861e-05 14.5732 0H22.1367ZM22.1367 1.50098H14.5732C14.0641 1.50099 13.5978 1.58845 13.1738 1.76367C12.7526 1.93803 12.3605 2.20595 12.001 2.56543L2.56543 12.001C2.20595 12.3605 1.93705 12.7526 1.7627 13.1729C1.58747 13.5959 1.50001 14.0631 1.5 14.5723V26.8613C1.5 27.8624 1.90816 28.7714 2.56738 29.4307C3.2266 30.0899 4.13565 30.498 5.13672 30.498H22.1357C23.1367 30.498 24.0459 30.0898 24.7051 29.4307C25.3643 28.7724 25.7734 27.8624 25.7734 26.8613V5.13672C25.7734 4.13565 25.3643 3.2266 24.7051 2.56738C24.0459 1.90827 23.1367 1.5 22.1357 1.5L22.1367 1.50098ZM8.34082 14.9111C8.62782 14.6664 9.0461 14.6741 9.32129 14.917C10.3194 15.7721 11.4507 17.0496 12.2646 18.3975C12.9581 19.5454 13.4326 20.7633 13.4326 21.8643C13.4325 23.1355 12.9165 24.2866 12.083 25.1201C11.2504 25.9535 10.0984 26.4688 8.82715 26.4688C7.55586 26.4687 6.40479 25.9536 5.57129 25.1201C4.73779 24.2876 4.22275 23.1355 4.22266 21.8643C4.22266 20.7643 4.69713 19.5455 5.38965 18.3975C6.20559 17.0467 7.34075 15.7653 8.34082 14.9111ZM22.3018 24.4951C22.7161 24.4951 23.0507 24.8308 23.0508 25.2451C23.0508 25.6595 22.7151 25.9951 22.3018 25.9951H15.9375C15.5233 25.995 15.1885 25.6594 15.1885 25.2451C15.1885 24.8309 15.5243 24.4953 15.9375 24.4951H22.3018ZM8.82715 16.4893C8.06816 17.2199 7.27519 18.173 6.67285 19.1699C6.10865 20.1044 5.72266 21.0611 5.72266 21.8633C5.72275 22.7202 6.07065 23.4964 6.63184 24.0576C7.19303 24.6198 7.96922 24.9667 8.82617 24.9668C9.68325 24.9668 10.4602 24.6189 11.0215 24.0576C11.5826 23.4964 11.9306 22.7201 11.9307 21.8633C11.9307 21.0601 11.5456 20.1044 10.9814 19.1699C10.3791 18.1728 9.58622 17.2209 8.82715 16.4893ZM22.3018 20.5791C22.7161 20.5791 23.0508 20.9148 23.0508 21.3291C23.0508 21.7434 22.7151 22.0791 22.3018 22.0791H16.9404C16.5263 22.0789 16.1914 21.7433 16.1914 21.3291C16.1914 20.9149 16.5273 20.5793 16.9404 20.5791H22.3018ZM22.3018 16.6641C22.7161 16.6641 23.0508 16.9997 23.0508 17.4131C23.0507 17.8274 22.7151 18.1631 22.3018 18.1631H15.9375C15.5233 18.1629 15.1885 17.8273 15.1885 17.4131C15.1885 16.9998 15.5243 16.6642 15.9375 16.6641H22.3018ZM1.88477 6.1377L3.49023 8.95801L8.12598 4.32031L5.58008 2.73438L1.88477 6.1377Z" fill="#58595B"/>
<path d="M22.1367 0C23.5511 0 24.837 0.577267 25.7676 1.50781C26.6979 2.43833 27.2744 3.72244 27.2744 5.1377V26.8623C27.2744 28.2766 26.6979 29.5617 25.7676 30.4922C24.837 31.4227 23.5521 32 22.1367 32H5.1377C3.72327 32 2.43836 31.4227 1.50781 30.4922C0.577268 29.5616 0 28.2777 0 26.8623V14.5732C1.02003e-05 13.8749 0.127191 13.2176 0.380859 12.6055C0.635535 11.9913 1.0112 11.4361 1.50586 10.9414L2.39258 10.0537L0.306641 6.38965C0.116675 6.09001 0.161526 5.68729 0.432617 5.43848L4.96777 1.2627C5.20874 1.02663 5.58796 0.976 5.8877 1.16211L9.21387 3.2334L10.9414 1.50586C11.4361 1.0112 11.9913 0.635535 12.6055 0.380859C13.2176 0.127191 13.8739 1.01861e-05 14.5732 0H22.1367ZM22.1367 1.50098H14.5732C14.0641 1.50099 13.5978 1.58845 13.1738 1.76367C12.7526 1.93803 12.3605 2.20595 12.001 2.56543L2.56543 12.001C2.20595 12.3605 1.93705 12.7526 1.7627 13.1729C1.58747 13.5959 1.50001 14.0631 1.5 14.5723V26.8613C1.5 27.8624 1.90816 28.7714 2.56738 29.4307C3.2266 30.0899 4.13565 30.498 5.13672 30.498H22.1357C23.1367 30.498 24.0459 30.0898 24.7051 29.4307C25.3643 28.7724 25.7734 27.8624 25.7734 26.8613V5.13672C25.7734 4.13565 25.3643 3.2266 24.7051 2.56738C24.0459 1.90827 23.1367 1.5 22.1357 1.5L22.1367 1.50098ZM8.34082 14.9111C8.62782 14.6664 9.0461 14.6741 9.32129 14.917C10.3194 15.7721 11.4507 17.0496 12.2646 18.3975C12.9581 19.5454 13.4326 20.7633 13.4326 21.8643C13.4325 23.1355 12.9165 24.2866 12.083 25.1201C11.2504 25.9535 10.0984 26.4688 8.82715 26.4688C7.55586 26.4687 6.40479 25.9536 5.57129 25.1201C4.73779 24.2876 4.22275 23.1355 4.22266 21.8643C4.22266 20.7643 4.69713 19.5455 5.38965 18.3975C6.20559 17.0467 7.34075 15.7653 8.34082 14.9111ZM22.3018 24.4951C22.7161 24.4951 23.0507 24.8308 23.0508 25.2451C23.0508 25.6595 22.7151 25.9951 22.3018 25.9951H15.9375C15.5233 25.995 15.1885 25.6594 15.1885 25.2451C15.1885 24.8309 15.5243 24.4953 15.9375 24.4951H22.3018ZM8.82715 16.4893C8.06816 17.2199 7.27519 18.173 6.67285 19.1699C6.10865 20.1044 5.72266 21.0611 5.72266 21.8633C5.72275 22.7202 6.07065 23.4964 6.63184 24.0576C7.19303 24.6198 7.96922 24.9667 8.82617 24.9668C9.68325 24.9668 10.4602 24.6189 11.0215 24.0576C11.5826 23.4964 11.9306 22.7201 11.9307 21.8633C11.9307 21.0601 11.5456 20.1044 10.9814 19.1699C10.3791 18.1728 9.58622 17.2209 8.82715 16.4893ZM22.3018 20.5791C22.7161 20.5791 23.0508 20.9148 23.0508 21.3291C23.0508 21.7434 22.7151 22.0791 22.3018 22.0791H16.9404C16.5263 22.0789 16.1914 21.7433 16.1914 21.3291C16.1914 20.9149 16.5273 20.5793 16.9404 20.5791H22.3018ZM22.3018 16.6641C22.7161 16.6641 23.0508 16.9997 23.0508 17.4131C23.0507 17.8274 22.7151 18.1631 22.3018 18.1631H15.9375C15.5233 18.1629 15.1885 17.8273 15.1885 17.4131C15.1885 16.9998 15.5243 16.6642 15.9375 16.6641H22.3018ZM1.88477 6.1377L3.49023 8.95801L8.12598 4.32031L5.58008 2.73438L1.88477 6.1377Z" stroke="#58595B"/>
</svg>
