<svg width="32" height="32" viewBox="0 0 32 32" fill="none" xmlns="http://www.w3.org/2000/svg">
<path d="M4 29.334H20" stroke="#58595B" stroke-width="1.5" stroke-linecap="round" stroke-linejoin="round"/>
<path d="M5.33203 12H18.6654" stroke="#58595B" stroke-width="1.5" stroke-linecap="round" stroke-linejoin="round"/>
<path d="M18.6654 29.3327V5.33268C18.6654 4.62544 18.3844 3.94716 17.8843 3.44706C17.3842 2.94697 16.7059 2.66602 15.9987 2.66602H7.9987C7.29145 2.66602 6.61318 2.94697 6.11308 3.44706C5.61298 3.94716 5.33203 4.62544 5.33203 5.33268V29.3327" stroke="#58595B" stroke-width="1.5" stroke-linecap="round" stroke-linejoin="round"/>
<path d="M18.668 17.3327H21.3346C22.0419 17.3327 22.7202 17.6136 23.2203 18.1137C23.7204 18.6138 24.0013 19.2921 24.0013 19.9993V22.666C24.0013 23.3733 24.2823 24.0515 24.7824 24.5516C25.2824 25.0517 25.9607 25.3327 26.668 25.3327C27.3752 25.3327 28.0535 25.0517 28.5536 24.5516C29.0537 24.0515 29.3346 23.3733 29.3346 22.666V13.106C29.3349 12.7541 29.2655 12.4057 29.1305 12.0807C28.9955 11.7558 28.7975 11.4608 28.548 11.2127L24.0013 6.66602" stroke="#58595B" stroke-width="1.5" stroke-linecap="round" stroke-linejoin="round"/>
</svg>
