<svg width="21" height="24" viewBox="0 0 21 24" fill="none" xmlns="http://www.w3.org/2000/svg">
<path fill-rule="evenodd" clip-rule="evenodd" d="M2.82623 0.200195C1.37926 0.200195 0.199219 1.37305 0.199219 2.81537V17.473C0.199219 18.9153 1.37926 20.085 2.82623 20.085H6.02282V23.2248C6.02279 23.3036 6.04579 23.3806 6.089 23.4465C6.1322 23.5124 6.19372 23.5642 6.26599 23.5955C6.33825 23.6269 6.41811 23.6364 6.49573 23.623C6.57334 23.6095 6.64534 23.5737 6.70284 23.5198L10.3578 20.085H17.5706C19.0176 20.085 20.1976 18.9153 20.1976 17.473V2.81537C20.1976 1.37305 19.0176 0.200195 17.5706 0.200195H2.82623ZM2.82623 1.00802H17.5706C18.5865 1.00802 19.389 1.80916 19.389 2.81537V17.473C19.389 18.4792 18.5865 19.2764 17.5706 19.2764H10.1968C10.0947 19.2772 9.99656 19.3166 9.92231 19.3868L6.83065 22.2884V19.6819C6.83085 19.6286 6.8205 19.5758 6.80019 19.5265C6.77989 19.4772 6.75003 19.4324 6.71233 19.3947C6.67464 19.357 6.62986 19.3271 6.58057 19.3068C6.53128 19.2865 6.47846 19.2762 6.42515 19.2764H2.82623C1.81029 19.2764 1.00783 18.4792 1.00783 17.473V2.81537C1.00783 1.80916 1.81029 1.00802 2.82623 1.00802ZM10.1132 3.64686C9.20363 3.64773 8.44798 4.37997 8.44708 5.28381V10.6688C8.44798 11.5726 9.20363 12.3049 10.1132 12.3057C11.0228 12.3049 11.7761 11.5726 11.777 10.6688V5.28381C11.7761 4.37998 11.0228 3.64774 10.1132 3.64686ZM10.1132 4.45469C10.5966 4.45516 10.9687 4.82921 10.9692 5.28697V10.6656C10.9687 11.1234 10.5966 11.4974 10.1132 11.4979C9.62981 11.4975 9.25537 11.1234 9.25491 10.6656V5.28697C9.25537 4.82921 9.62981 4.45515 10.1132 4.45469ZM10.0706 13.8236C9.1801 13.8468 8.44797 14.5708 8.44708 15.4605C8.44798 16.3644 9.20363 17.0966 10.1132 17.0975C11.0228 17.0966 11.7761 16.3644 11.777 15.4605C11.7761 14.5567 11.0228 13.8244 10.1132 13.8236C10.099 13.8236 10.0848 13.8232 10.0706 13.8236ZM10.1132 14.6314C10.5966 14.6319 10.9687 15.0028 10.9692 15.4605C10.9687 15.9183 10.5966 16.2884 10.1132 16.2889C9.62981 16.2884 9.25538 15.9183 9.25491 15.4605C9.25538 15.0028 9.62981 14.6319 10.1132 14.6314Z" fill="#EB0D1C" stroke="#EB0D1C" stroke-width="0.4"/>
</svg>
