<svg width="23" height="23" viewBox="0 0 23 23" fill="none" xmlns="http://www.w3.org/2000/svg">
<path fill-rule="evenodd" clip-rule="evenodd" d="M11.1992 0.200195C5.12405 0.200195 0.199219 5.12502 0.199219 11.2002C0.199219 17.2754 5.12405 22.2002 11.1992 22.2002C17.2744 22.2002 22.1992 17.2754 22.1992 11.2002C22.1992 5.12502 17.2744 0.200195 11.1992 0.200195ZM14.1613 16.7216V17.6334H8.23739V16.7216H14.1613ZM10.3792 12.062C11.9692 11.1075 13.65 13.2346 12.3263 14.5584C11.0592 15.8255 8.98597 14.3302 9.76418 12.7328L6.37632 9.36532L7.01732 8.72061L10.3792 12.062ZM10.716 12.947C11.3523 12.3106 12.318 13.2772 11.6816 13.9127C11.0462 14.55 10.0796 13.5834 10.716 12.947ZM19.6836 11.2002H18.7717C18.7717 9.10929 17.9239 7.21604 16.5537 5.84579C13.0752 2.36721 7.27071 3.08416 4.72446 7.27066L3.94803 6.79663C4.70499 5.55172 5.77457 4.51646 7.04641 3.80132C12.6559 0.645468 19.6836 4.69374 19.6836 11.2002ZM4.06561 4.06661C8.00537 0.126838 14.3931 0.126838 18.3319 4.06661C22.2716 8.00637 22.2716 14.3941 18.3319 18.3329C14.3921 22.2726 8.00537 22.2726 4.06561 18.3329C0.125837 14.3941 0.125837 8.00637 4.06561 4.06661Z" fill="#EB0D1C" stroke="#EB0D1C" stroke-width="0.4"/>
</svg>
