<svg width="27" height="25" viewBox="0 0 27 25" fill="none" xmlns="http://www.w3.org/2000/svg">
<path d="M26.2872 17.7184C25.8521 17.3677 25.2879 17.2524 24.7609 17.4061L18.9953 18.447C19.2187 18.1161 19.3409 17.7196 19.3444 17.3119C19.3432 16.8224 19.1594 16.354 18.8337 16.0095C18.5091 15.665 18.0682 15.4717 17.6086 15.473H13.0576C12.8121 15.473 12.576 15.3701 12.4015 15.1855C11.2939 13.9971 9.78504 13.3316 8.21349 13.3366H4.72331C4.24864 12.2152 3.10855 11.5931 1.97658 11.8384C0.844622 12.085 0.0244492 13.1334 2.78262e-05 14.3626V20.7669C-0.00462565 21.8115 0.574735 22.7595 1.47285 23.1796C2.37096 23.5997 3.41798 23.4113 4.13696 22.7C4.19396 22.7719 4.27074 22.8239 4.35567 22.8487L10.1912 24.5043C10.8346 24.8289 11.536 24.9987 12.248 25H14.0303C15.0447 25.0037 16.0476 24.7757 16.9713 24.3308L25.9572 20.8609C26.5773 20.566 26.981 19.9142 26.9903 19.1905C26.988 18.6094 26.7274 18.0629 26.2876 17.7184L26.2872 17.7184ZM2.45667 22.4124C1.60973 22.4038 0.928012 21.6689 0.930335 20.7668V14.3626C0.930335 13.4567 1.62021 12.7219 2.47064 12.7219C3.32107 12.7219 4.01095 13.4567 4.01095 14.3626V20.7668C4.01211 21.2055 3.84808 21.6268 3.55608 21.9353C3.26408 22.2451 2.8685 22.4161 2.45667 22.4124ZM25.5939 19.9341L16.6172 23.4039C15.804 23.7943 14.9222 23.9963 14.0299 23.9987H12.2476C11.6624 23.9987 11.0843 23.8562 10.5584 23.5824C10.5305 23.5663 10.5014 23.5539 10.47 23.5477L4.9278 21.9863V14.3233H8.21784C9.54175 14.3208 10.811 14.8809 11.7452 15.8797C12.0931 16.2514 12.5643 16.4621 13.0575 16.4646H17.6085C18.0471 16.4621 18.4054 16.8351 18.4136 17.3023C18.4136 17.7186 18.1111 18.1598 17.4549 18.6753H13.7926C13.5355 18.6753 13.3273 18.8971 13.3273 19.1709C13.3273 19.4448 13.5355 19.6666 13.7926 19.6666H17.6083C17.6711 19.6641 17.7328 19.648 17.7898 19.622C17.8457 19.6319 17.9015 19.6319 17.9573 19.622L24.9377 18.3828H24.9889C25.2425 18.3048 25.517 18.3581 25.7288 18.5266C25.9335 18.7075 26.0406 18.9863 26.0138 19.2688C25.9859 19.5514 25.8289 19.8002 25.5939 19.9341ZM6.66818 11.5078C7.07071 11.6082 7.4837 11.6577 7.89669 11.6565C9.7546 11.6689 11.4926 10.68 12.5177 9.02946L24.7236 12.0035C24.8609 12.0382 25.0017 12.0568 25.1424 12.058C26.0092 12.0555 26.7595 11.4161 26.9526 10.5165C27.1818 9.45077 26.5571 8.38757 25.5566 8.14219L25.4077 8.10254L26.115 4.81635C26.2697 4.10135 25.8544 3.38634 25.1843 3.21532L24.0303 2.93279C23.7115 2.85844 23.3776 2.91916 23.0996 3.10132C22.8145 3.28968 22.6133 3.59081 22.5411 3.939L22.3364 4.62799C22.3178 4.71845 22.2654 4.79652 22.1921 4.84609C22.1188 4.89565 22.0304 4.91176 21.9455 4.8907L21.5314 4.79156C21.358 4.74571 21.251 4.56108 21.2894 4.3752V4.31076C21.4418 3.59452 21.0276 2.88075 20.3587 2.70478C19.6863 2.54245 19.0162 2.9836 18.851 3.69613L18.2972 6.35293L13.3459 5.13854C13.1214 3.15462 11.9592 1.43076 10.2652 0.569794C8.57251 -0.291423 6.58324 -0.169987 4.99287 0.890736C3.75971 1.71357 2.88485 3.02462 2.55909 4.53508C2.23334 6.04553 2.48464 7.63178 3.25713 8.94394C4.02962 10.2575 5.2593 11.1906 6.67732 11.5375L6.66818 11.5078ZM25.9197 9.52512C26.0593 9.74569 26.1093 10.0171 26.0593 10.2785C26.0058 10.535 25.858 10.7581 25.6498 10.8981C25.4404 11.0382 25.1879 11.0852 24.9471 11.027L12.9645 8.09757C13.0879 7.79149 13.1844 7.47551 13.2531 7.15082C13.3205 6.82493 13.3624 6.49283 13.3787 6.15948L18.6138 7.44823L24.7612 8.93524L25.3289 9.07403C25.579 9.12979 25.7954 9.29337 25.9292 9.5251L25.9197 9.52512ZM19.7771 3.93394C19.7957 3.84348 19.8481 3.76541 19.9214 3.71584C20.0331 3.63901 20.1773 3.64273 20.2855 3.72452C20.3949 3.8063 20.4449 3.95005 20.4147 4.08759V4.15202C20.2576 4.8695 20.6729 5.58698 21.3454 5.758L21.7549 5.85713C22.4273 6.02194 23.0997 5.57956 23.2626 4.86579L23.4161 4.15697C23.4592 3.97233 23.6325 3.85833 23.807 3.89922L24.9611 4.18175C25.046 4.20034 25.1205 4.2561 25.167 4.33417C25.2136 4.41224 25.2287 4.50766 25.2077 4.59812L24.5004 7.8843L19.2048 6.55095L19.7771 3.93394ZM3.48982 4.75677C3.72017 3.68983 4.28209 2.73814 5.08481 2.05413C5.88753 1.37011 6.88338 0.994641 7.91063 0.989661C9.1787 0.987182 10.3909 1.54729 11.2552 2.53616C12.1195 3.52503 12.557 4.85219 12.4639 6.19921C12.3708 7.54744 11.7543 8.79159 10.7631 9.63418C9.7719 10.4781 8.49567 10.8424 7.24163 10.6404C5.98753 10.4397 4.86835 9.68995 4.1553 8.57346C3.44101 7.45697 3.19667 6.07403 3.48056 4.75686L3.48982 4.75677ZM7.34304 8.55845C8.01547 8.72698 8.72279 8.59935 9.30682 8.20652C10.3701 7.50141 10.818 6.0937 10.3748 4.84451C9.93153 3.59666 8.72163 2.85564 7.48615 3.07621C6.25066 3.29678 5.33274 4.41701 5.29668 5.75036C5.25945 7.08495 6.1122 8.26095 7.33372 8.55836L7.34304 8.55845ZM6.2867 5.44068C6.47167 4.6439 7.13945 4.08005 7.91075 4.07263C8.03756 4.07263 8.16436 4.0875 8.28767 4.11724C8.72392 4.22505 9.10204 4.5113 9.33934 4.91526C9.63717 5.42334 9.67672 6.05656 9.44638 6.60178C9.21487 7.14828 8.74369 7.53489 8.18992 7.63526C7.63499 7.73439 7.07077 7.5324 6.68452 7.09622C6.29944 6.66127 6.1424 6.04911 6.26805 5.46547L6.2867 5.44068Z" fill="#EB0D1C"/>
</svg>
