<svg width="18" height="23" viewBox="0 0 18 23" fill="none" xmlns="http://www.w3.org/2000/svg">
<path d="M3.95559 8.73601C4.13532 9.00543 4.40598 9.16705 4.69905 9.17984C4.71184 9.18055 4.72391 9.18055 4.73617 9.18055C5.01554 9.18055 5.28408 9.04415 5.47818 8.80172L7.2208 6.6238C7.36075 6.44868 7.33234 6.19401 7.15758 6.05406C6.98246 5.91447 6.72778 5.94253 6.58802 6.11747L4.8454 8.29557C4.80775 8.34317 4.76796 8.37443 4.73386 8.37034C4.70332 8.36874 4.66336 8.33695 4.62979 8.28651L4.03554 7.3946C3.91158 7.20847 3.65956 7.15786 3.47363 7.282C3.28732 7.40597 3.23689 7.6578 3.36103 7.8441L3.95559 8.73601Z" fill="#EB0D1C"/>
<path d="M8.79236 8.30064H13.5077C13.7318 8.30064 13.9133 8.1193 13.9133 7.89535C13.9133 7.67174 13.7318 7.49023 13.5077 7.49023H8.79236C8.56823 7.49023 8.38672 7.67174 8.38672 7.89535C8.3869 8.11966 8.56823 8.30064 8.79236 8.30064Z" fill="#EB0D1C"/>
<path d="M7.15944 10.8442C6.98433 10.7044 6.72965 10.7327 6.58989 10.9074L4.84726 13.0859C4.80961 13.1335 4.76485 13.1612 4.73573 13.1603C4.70518 13.1587 4.66522 13.1267 4.63165 13.0765L4.03741 12.1851C3.91291 11.9984 3.66143 11.9485 3.47549 12.0723C3.28919 12.1966 3.23875 12.4481 3.36325 12.6348L3.95749 13.526C4.13722 13.7956 4.40807 13.9578 4.70095 13.97C4.71374 13.9707 4.72582 13.9713 4.73807 13.9713C5.01762 13.9713 5.28635 13.8345 5.48008 13.5921L7.22271 11.4143C7.36248 11.2389 7.3342 10.984 7.15944 10.8442Z" fill="#EB0D1C"/>
<path d="M8.79236 13.0909H13.5077C13.7318 13.0909 13.9133 12.9095 13.9133 12.6856C13.9133 12.4614 13.7318 12.2803 13.5077 12.2803H8.79236C8.56823 12.2803 8.38672 12.4616 8.38672 12.6856C8.38672 12.9095 8.56823 13.0909 8.79236 13.0909Z" fill="#EB0D1C"/>
<path d="M3.95559 18.3137C4.13532 18.5831 4.40617 18.7453 4.69905 18.7577C4.71184 18.7582 4.72391 18.7588 4.73617 18.7588C5.01554 18.7588 5.28444 18.622 5.47818 18.3799L7.2208 16.2015C7.36075 16.0269 7.33234 15.7717 7.15758 15.6321C6.98246 15.4918 6.72778 15.5204 6.58802 15.695L4.8454 17.874C4.80775 17.9214 4.76299 17.9511 4.73386 17.948C4.70332 17.9468 4.66336 17.9145 4.62979 17.864L4.03554 16.9725C3.91158 16.7865 3.65956 16.7363 3.47363 16.8604C3.28732 16.9842 3.23689 17.2362 3.36103 17.4223L3.95559 18.3137Z" fill="#EB0D1C"/>
<path d="M8.79236 17.8798H13.5077C13.7318 17.8798 13.9133 17.6984 13.9133 17.4745C13.9133 17.2504 13.7318 17.0688 13.5077 17.0688H8.79236C8.56823 17.0688 8.38672 17.2504 8.38672 17.4745C8.38672 17.6985 8.56823 17.8798 8.79236 17.8798Z" fill="#EB0D1C"/>
<path d="M2.86145 22.9149H15.1414C16.7192 22.9149 18.0028 21.6312 18.0028 20.0535L18.0026 4.70366C18.0026 3.12584 16.7191 1.84211 15.1412 1.84211H14.3168C14.2969 0.82321 13.4631 0 12.4399 0H5.56269C4.5388 0 3.70549 0.823165 3.68581 1.84193H2.86137C1.28355 1.84193 1.84266e-08 3.12562 1.84266e-08 4.70347V20.0533C-0.000177584 21.6311 1.2836 22.9149 2.86145 22.9149ZM4.49469 1.87902C4.49469 1.2901 4.97386 0.810751 5.56278 0.810751H12.44C13.0289 0.810751 13.5081 1.2901 13.5081 1.87902V2.61589C13.5081 3.20482 13.0289 3.68417 12.44 3.68417H5.56278C4.97385 3.68417 4.49469 3.20482 4.49469 2.61589L4.49469 1.87902ZM0.81052 4.70361C0.81052 3.57282 1.73048 2.65268 2.86145 2.65268H3.68589C3.70578 3.67139 4.53929 4.4946 5.56278 4.4946H12.44C13.4635 4.4946 14.2972 3.67144 14.3169 2.65268H15.1413C16.2723 2.65268 17.1923 3.57264 17.1923 4.70361V20.0534C17.1923 21.1842 16.2726 22.1044 15.1413 22.1044H2.86136C1.73057 22.1044 0.810429 21.1844 0.810429 20.0534L0.81052 4.70361Z" fill="#EB0D1C"/>
</svg>
