<svg width="32" height="32" viewBox="0 0 32 32" fill="none" xmlns="http://www.w3.org/2000/svg">
<g clip-path="url(#clip0_2338_25003)">
<circle cx="16.0003" cy="15.9998" r="13.1429" stroke="#58595B" stroke-width="1.5" stroke-linecap="round" stroke-linejoin="round"/>
<path d="M8.08203 2.23779L9.489 4.66649M24.082 29.8568L22.5649 27.2379" stroke="#58595B" stroke-width="1.5" stroke-linecap="round" stroke-linejoin="round"/>
<path d="M29.9512 8.27344L27.3686 9.71407M1.95117 23.8925L4.66125 22.3807" stroke="#58595B" stroke-width="1.5" stroke-linecap="round" stroke-linejoin="round"/>
<path d="M24.2715 2.33496L22.758 4.85739M7.70006 29.954L9.32946 27.2383" stroke="#58595B" stroke-width="1.5" stroke-linecap="round" stroke-linejoin="round"/>
<path d="M16.0957 0L16.0957 2.95238M16.0957 32L16.0957 29.0476" stroke="#58595B" stroke-width="1.5" stroke-linecap="round" stroke-linejoin="round"/>
<path d="M32 16.0952L29.0476 16.0952M-5.96046e-07 16.0952L2.95238 16.0952" stroke="#58595B" stroke-width="1.5" stroke-linecap="round" stroke-linejoin="round"/>
<path d="M29.666 24.2725L27.143 22.7832M2.23744 8.08199L4.66681 9.51598" stroke="#58595B" stroke-width="1.5" stroke-linecap="round" stroke-linejoin="round"/>
<circle cx="15.9995" cy="22.2857" r="2.09524" stroke="#58595B" stroke-width="1.5" stroke-linecap="round" stroke-linejoin="round"/>
<line x1="15.9883" y1="8.75" x2="15.9883" y2="19.631" stroke="#58595B" stroke-width="1.5" stroke-linecap="round" stroke-linejoin="round"/>
<line x1="18.8691" y1="18.4644" x2="15.9882" y2="18.4644" stroke="#58595B" stroke-width="1.5" stroke-linecap="round" stroke-linejoin="round"/>
<line x1="18.8691" y1="15.0356" x2="15.9882" y2="15.0356" stroke="#58595B" stroke-width="1.5" stroke-linecap="round" stroke-linejoin="round"/>
<line x1="18.8691" y1="11.6069" x2="15.9882" y2="11.6069" stroke="#58595B" stroke-width="1.5" stroke-linecap="round" stroke-linejoin="round"/>
</g>
<defs>
<clipPath id="clip0_2338_25003">
<rect width="32" height="32" fill="white"/>
</clipPath>
</defs>
</svg>
