<svg width="16" height="26" viewBox="0 0 16 26" fill="none" xmlns="http://www.w3.org/2000/svg">
<path d="M7.81778 14.7566C7.71226 14.7566 7.61106 14.7147 7.53645 14.6401C7.46184 14.5655 7.41992 14.4643 7.41992 14.3588V10.3544C7.41992 10.2489 7.46184 10.1477 7.53645 10.0731C7.61106 9.99846 7.71226 9.95654 7.81778 9.95654C7.92329 9.95654 8.02449 9.99846 8.0991 10.0731C8.17371 10.1477 8.21563 10.2489 8.21563 10.3544V14.3588C8.21563 14.4643 8.17371 14.5655 8.0991 14.6401C8.02449 14.7147 7.92329 14.7566 7.81778 14.7566Z" fill="#EB0D1C"/>
<path d="M13.3877 25.4728H7.81778C7.71226 25.4728 7.61106 25.4309 7.53645 25.3563C7.46184 25.2817 7.41992 25.1805 7.41992 25.075V23.77C7.41992 23.6645 7.46184 23.5633 7.53645 23.4887C7.61106 23.4141 7.71226 23.3722 7.81778 23.3722C7.92329 23.3722 8.02449 23.4141 8.0991 23.4887C8.17371 23.5633 8.21563 23.6645 8.21563 23.77V24.6771H12.9899V10.3544C12.9899 10.2489 13.0318 10.1477 13.1064 10.0731C13.181 9.99846 13.2822 9.95654 13.3877 9.95654C13.4932 9.95654 13.5944 9.99846 13.669 10.0731C13.7437 10.1477 13.7856 10.2489 13.7856 10.3544V25.075C13.7856 25.1805 13.7437 25.2817 13.669 25.3563C13.5944 25.4309 13.4932 25.4728 13.3877 25.4728Z" fill="#EB0D1C"/>
<path d="M10.6029 25.4719C10.4974 25.4719 10.3962 25.43 10.3216 25.3554C10.247 25.2808 10.2051 25.1796 10.2051 25.0741V15.5634C10.2051 15.4579 10.247 15.3567 10.3216 15.2821C10.3962 15.2074 10.4974 15.1655 10.6029 15.1655C10.7084 15.1655 10.8096 15.2074 10.8843 15.2821C10.9589 15.3567 11.0008 15.4579 11.0008 15.5634V25.0741C11.0008 25.1796 10.9589 25.2808 10.8843 25.3554C10.8096 25.43 10.7084 25.4719 10.6029 25.4719Z" fill="#EB0D1C"/>
<path d="M15.6049 16.9422C15.4994 16.9422 15.3982 16.9002 15.3236 16.8256C15.249 16.751 15.207 16.6498 15.207 16.5443V9.39489C15.206 8.80376 14.9711 8.23706 14.5537 7.81851C14.1363 7.39996 13.5702 7.16357 12.9791 7.16094H8.24063C7.64813 7.16147 7.08001 7.39693 6.66087 7.81571C6.24172 8.23448 6.00574 8.80239 6.00469 9.39489V13.1626C6.00469 13.2681 5.96277 13.3693 5.88816 13.4439C5.81355 13.5185 5.71236 13.5604 5.60684 13.5604C5.50132 13.5604 5.40013 13.5185 5.32551 13.4439C5.2509 13.3693 5.20898 13.2681 5.20898 13.1626V9.39489C5.21004 8.59135 5.52984 7.82106 6.09822 7.25306C6.66659 6.68506 7.43709 6.36576 8.24063 6.36523H12.9791C13.7812 6.36786 14.5497 6.68809 15.1163 7.25586C15.683 7.82364 16.0017 8.59273 16.0027 9.39489V16.5443C16.0027 16.6498 15.9608 16.751 15.8862 16.8256C15.8116 16.9002 15.7104 16.9422 15.6049 16.9422Z" fill="#EB0D1C"/>
<path d="M10.6024 7.16134C9.8932 7.16409 9.19916 6.95618 8.60828 6.56397C8.01739 6.17176 7.55629 5.61291 7.28343 4.95829C7.01057 4.30368 6.93826 3.58278 7.07565 2.88701C7.21304 2.19124 7.55396 1.55193 8.05516 1.05017C8.55637 0.548406 9.19529 0.20678 9.8909 0.0686118C10.5865 -0.0695566 11.3075 0.00195645 11.9624 0.274083C12.6173 0.546209 13.1767 1.00669 13.5696 1.59714C13.9624 2.18758 14.1711 2.8814 14.1692 3.5906C14.1665 4.53613 13.79 5.44223 13.1218 6.1112C12.4536 6.78016 11.5479 7.15766 10.6024 7.16134ZM10.6024 0.805628C10.051 0.802871 9.5112 0.96386 9.05138 1.2682C8.59157 1.57253 8.23244 2.00652 8.01952 2.51515C7.80659 3.02379 7.74945 3.58419 7.85533 4.12534C7.96121 4.66648 8.22535 5.16402 8.61428 5.5549C9.0032 5.94578 9.49941 6.21241 10.04 6.321C10.5806 6.42959 11.1413 6.37526 11.651 6.16489C12.1607 5.95452 12.5965 5.59757 12.9031 5.13929C13.2098 4.681 13.3734 4.14201 13.3735 3.5906C13.3735 2.85439 13.082 2.14812 12.5627 1.62623C12.0434 1.10435 11.3386 0.809309 10.6024 0.805628Z" fill="#EB0D1C"/>
<path d="M10.6038 9.55877C10.5392 9.55877 10.4755 9.543 10.4183 9.51285C10.3611 9.48269 10.3121 9.43905 10.2756 9.38571L8.56883 6.89912C8.51074 6.81204 8.48932 6.70558 8.50919 6.60281C8.52907 6.50004 8.58864 6.40925 8.675 6.3501C8.76137 6.29096 8.86756 6.26823 8.97056 6.28684C9.07357 6.30546 9.16509 6.36392 9.22528 6.44955L10.6038 8.4607L11.9824 6.44955C12.0116 6.40574 12.0493 6.36817 12.0931 6.33902C12.1369 6.30986 12.1861 6.2897 12.2378 6.2797C12.2895 6.2697 12.3427 6.27006 12.3943 6.28077C12.4458 6.29147 12.4947 6.31231 12.5382 6.34206C12.5816 6.37181 12.6187 6.4099 12.6474 6.4541C12.676 6.4983 12.6955 6.54774 12.7049 6.59956C12.7143 6.65138 12.7133 6.70454 12.7019 6.75596C12.6906 6.80738 12.6692 6.85604 12.6389 6.89912L10.9321 9.38968C10.8951 9.4423 10.8459 9.48516 10.7888 9.51461C10.7316 9.54406 10.6681 9.55921 10.6038 9.55877Z" fill="#EB0D1C"/>
<path d="M10.6043 2.55289C9.59176 2.55289 8.62896 2.29627 7.96852 1.85068C7.88094 1.79159 7.82042 1.70013 7.80028 1.59641C7.78013 1.4927 7.80201 1.38524 7.8611 1.29766C7.92019 1.21008 8.01165 1.14956 8.11536 1.12942C8.21907 1.10927 8.32654 1.13115 8.41412 1.19024C8.94724 1.5503 9.74693 1.75519 10.6023 1.75519C11.4577 1.75519 12.2614 1.55626 12.7905 1.18825C12.8339 1.15899 12.8826 1.13856 12.9338 1.12812C12.9851 1.11769 13.0379 1.11745 13.0893 1.12743C13.1406 1.1374 13.1895 1.15739 13.2331 1.18626C13.2768 1.21513 13.3143 1.2523 13.3435 1.29567C13.3728 1.33903 13.3932 1.38774 13.4036 1.439C13.4141 1.49026 13.4143 1.54307 13.4043 1.59443C13.3944 1.64578 13.3744 1.69466 13.3455 1.73829C13.3166 1.78191 13.2795 1.81943 13.2361 1.84869C12.5796 2.29826 11.6188 2.55289 10.6043 2.55289Z" fill="#EB0D1C"/>
<path d="M8.7585 22.8247H0.841213C0.735696 22.8247 0.6345 22.7828 0.559888 22.7082C0.485276 22.6336 0.443359 22.5324 0.443359 22.4269V20.2387C0.443359 20.1332 0.485276 20.032 0.559888 19.9573C0.6345 19.8827 0.735696 19.8408 0.841213 19.8408C0.94673 19.8408 1.04793 19.8827 1.12254 19.9573C1.19715 20.032 1.23907 20.1332 1.23907 20.2387V22.029H8.36064V20.2387C8.36064 20.1332 8.40256 20.032 8.47717 19.9573C8.55178 19.8827 8.65298 19.8408 8.7585 19.8408C8.86401 19.8408 8.96521 19.8827 9.03982 19.9573C9.11443 20.032 9.15635 20.1332 9.15635 20.2387V22.4269C9.15635 22.5324 9.11443 22.6336 9.03982 22.7082C8.96521 22.7828 8.86401 22.8247 8.7585 22.8247Z" fill="#EB0D1C"/>
<path d="M9.19833 18.5106C9.09282 18.5106 8.99162 18.4687 8.91701 18.3941C8.8424 18.3195 8.80048 18.2183 8.80048 18.1128V16.221H0.79766V18.1128C0.79766 18.2183 0.755743 18.3195 0.681131 18.3941C0.606519 18.4687 0.505324 18.5106 0.399807 18.5106C0.294289 18.5106 0.193094 18.4687 0.118482 18.3941C0.0438696 18.3195 0.00195312 18.2183 0.00195312 18.1128V15.8231C0.00195312 15.7176 0.0438696 15.6164 0.118482 15.5418C0.193094 15.4672 0.294289 15.4253 0.399807 15.4253H9.19833C9.30385 15.4253 9.40505 15.4672 9.47966 15.5418C9.55427 15.6164 9.59619 15.7176 9.59619 15.8231V18.1128C9.59619 18.2183 9.55427 18.3195 9.47966 18.3941C9.40505 18.4687 9.30385 18.5106 9.19833 18.5106Z" fill="#EB0D1C"/>
<path d="M4.79811 20.0923C2.41099 20.0923 0 19.4358 0 18.1786C0 18.0731 0.0419165 17.9719 0.116528 17.8973C0.19114 17.8227 0.292336 17.7808 0.397853 17.7808C0.503371 17.7808 0.604566 17.8227 0.679178 17.8973C0.75379 17.9719 0.795707 18.0731 0.795707 18.1786C0.795707 18.5586 2.20809 19.2966 4.79811 19.2966C7.38814 19.2966 8.80052 18.5586 8.80052 18.1786C8.80052 18.0731 8.84243 17.9719 8.91705 17.8973C8.99166 17.8227 9.09285 17.7808 9.19837 17.7808C9.30389 17.7808 9.40508 17.8227 9.4797 17.8973C9.55431 17.9719 9.59622 18.0731 9.59622 18.1786C9.59622 19.4338 7.18324 20.0923 4.79811 20.0923Z" fill="#EB0D1C"/>
<path d="M6.67504 16.2232C6.56952 16.2232 6.46832 16.1813 6.39371 16.1067C6.3191 16.0321 6.27718 15.9309 6.27718 15.8254V15.4275C6.27718 15.1968 6.1439 15.0516 6.05439 15.0516H3.54194C3.45044 15.0516 3.31914 15.1988 3.31914 15.4275V15.8254C3.31914 15.9309 3.27723 16.0321 3.20262 16.1067C3.128 16.1813 3.02681 16.2232 2.92129 16.2232C2.81577 16.2232 2.71458 16.1813 2.63997 16.1067C2.56535 16.0321 2.52344 15.9309 2.52344 15.8254V15.4275C2.52344 14.781 2.98097 14.2559 3.54194 14.2559H6.05439C6.61735 14.2559 7.07289 14.781 7.07289 15.4275V15.8254C7.07289 15.9309 7.03097 16.0321 6.95636 16.1067C6.88175 16.1813 6.78055 16.2232 6.67504 16.2232Z" fill="#EB0D1C"/>
<path d="M5.36876 18.5765H4.1752C4.06968 18.5765 3.96848 18.5346 3.89387 18.4599C3.81926 18.3853 3.77734 18.2841 3.77734 18.1786C3.77734 18.0731 3.81926 17.9719 3.89387 17.8973C3.96848 17.8227 4.06968 17.7808 4.1752 17.7808H5.36876C5.47427 17.7808 5.57547 17.8227 5.65008 17.8973C5.72469 17.9719 5.76661 18.0731 5.76661 18.1786C5.76661 18.2841 5.72469 18.3853 5.65008 18.4599C5.57547 18.5346 5.47427 18.5765 5.36876 18.5765Z" fill="#EB0D1C"/>
</svg>
