<svg width="19" height="16" viewBox="0 0 19 16" fill="none" xmlns="http://www.w3.org/2000/svg">
<path d="M12.7266 0.875977C13.6093 0.663297 14.5367 0.721327 15.3848 1.04297C16.2328 1.36467 16.9604 1.93421 17.4717 2.67383C17.9829 3.41343 18.2543 4.28907 18.25 5.18359V5.18652C18.25 6.99167 17.0636 8.39732 15.6309 9.81641L10.4141 14.8125L10.3691 14.8594C10.2626 14.9803 10.1309 15.078 9.98242 15.1455C9.83361 15.2131 9.67115 15.249 9.50684 15.25C9.34256 15.251 9.17994 15.2171 9.03027 15.1514C8.88086 15.0857 8.74774 14.9898 8.63965 14.8701L8.60156 14.8311L3.37695 9.8252H3.37793C1.94054 8.40248 0.75 7.00438 0.75 5.18652L0.762695 4.85352C0.82203 4.07818 1.08804 3.32953 1.53613 2.68457C2.04824 1.94755 2.77471 1.37968 3.62109 1.05859C4.46748 0.737551 5.39285 0.678533 6.27441 0.888672C7.15595 1.09885 7.95118 1.56864 8.55566 2.23438C8.55899 2.23804 8.56301 2.24152 8.56641 2.24512C8.68676 2.37248 8.83167 2.47402 8.99219 2.54297C9.15267 2.61189 9.32556 2.64746 9.5 2.64746C9.67445 2.64746 9.84732 2.6119 10.0078 2.54297C10.1683 2.47402 10.3132 2.37248 10.4336 2.24512C10.4378 2.24066 10.4422 2.236 10.4463 2.23145C11.0486 1.56163 11.8439 1.08867 12.7266 0.875977Z" stroke="#58595B" stroke-width="1.5" stroke-linecap="round" stroke-linejoin="round"/>
</svg>
