<svg width="20" height="20" viewBox="0 0 20 20" fill="none" xmlns="http://www.w3.org/2000/svg">
<g clip-path="url(#clip0_2381_2833)">
<path d="M14.9993 5.83317V4.33317C14.9993 3.39975 14.9993 2.93304 14.8177 2.57652C14.6579 2.26292 14.4029 2.00795 14.0893 1.84816C13.7328 1.6665 13.2661 1.6665 12.3327 1.6665H7.66602C6.73259 1.6665 6.26588 1.6665 5.90936 1.84816C5.59576 2.00795 5.34079 2.26292 5.181 2.57652C4.99935 2.93304 4.99935 3.39975 4.99935 4.33317V5.83317M4.99935 14.9998C4.22437 14.9998 3.83688 14.9998 3.51897 14.9147C2.65624 14.6835 1.98237 14.0096 1.7512 13.1469C1.66602 12.829 1.66602 12.4415 1.66602 11.6665V9.83317C1.66602 8.43304 1.66602 7.73297 1.9385 7.19819C2.17818 6.72779 2.56063 6.34534 3.03104 6.10565C3.56582 5.83317 4.26588 5.83317 5.66602 5.83317H14.3327C15.7328 5.83317 16.4329 5.83317 16.9677 6.10565C17.4381 6.34534 17.8205 6.72779 18.0602 7.19819C18.3327 7.73297 18.3327 8.43304 18.3327 9.83317V11.6665C18.3327 12.4415 18.3327 12.829 18.2475 13.1469C18.0163 14.0096 17.3425 14.6835 16.4797 14.9147C16.1618 14.9998 15.7743 14.9998 14.9993 14.9998M12.4993 8.74984H14.9993M7.66602 18.3332H12.3327C13.2661 18.3332 13.7328 18.3332 14.0893 18.1515C14.4029 17.9917 14.6579 17.7368 14.8177 17.4232C14.9993 17.0666 14.9993 16.5999 14.9993 15.6665V14.3332C14.9993 13.3997 14.9993 12.933 14.8177 12.5765C14.6579 12.2629 14.4029 12.0079 14.0893 11.8482C13.7328 11.6665 13.2661 11.6665 12.3327 11.6665H7.66602C6.73259 11.6665 6.26588 11.6665 5.90936 11.8482C5.59576 12.0079 5.34079 12.2629 5.181 12.5765C4.99935 12.933 4.99935 13.3997 4.99935 14.3332V15.6665C4.99935 16.5999 4.99935 17.0666 5.181 17.4232C5.34079 17.7368 5.59576 17.9917 5.90936 18.1515C6.26588 18.3332 6.73259 18.3332 7.66602 18.3332Z" stroke="#58595B" stroke-width="1.5" stroke-linecap="round" stroke-linejoin="round"/>
</g>
<defs>
<clipPath id="clip0_2381_2833">
<rect width="20" height="20" fill="white"/>
</clipPath>
</defs>
</svg>
