<svg width="17" height="19" viewBox="0 0 17 19" fill="none" xmlns="http://www.w3.org/2000/svg">
<path d="M13.4883 0C15.3092 0.000260617 16.7859 1.47693 16.7861 3.29785C16.786 5.11883 15.3092 6.59544 13.4883 6.5957C12.5441 6.5957 11.693 6.19852 11.0918 5.5625L6.4502 8.27148C6.54445 8.5781 6.59568 8.90372 6.5957 9.24121C6.59568 9.57828 6.54421 9.90367 6.4502 10.21L11.0938 12.916C11.6948 12.2819 12.5457 11.8867 13.4883 11.8867C15.3093 11.887 16.7861 13.3635 16.7861 15.1846C16.786 17.0055 15.3092 18.4822 13.4883 18.4824C11.6671 18.4824 10.1905 17.0057 10.1904 15.1846C10.1904 14.8457 10.241 14.5187 10.3359 14.2109L5.69238 11.5059C5.09128 12.1414 4.24145 12.5389 3.29785 12.5391C1.47669 12.5391 0.000115832 11.0623 0 9.24121C0.000144855 7.4201 1.47671 5.94336 3.29785 5.94336C4.24158 5.94351 5.09224 6.34095 5.69336 6.97656L10.3359 4.26758C10.2417 3.96099 10.1905 3.63529 10.1904 3.29785C10.1906 1.47677 11.6672 0 13.4883 0ZM13.4883 13.3867C12.8606 13.3867 12.3079 13.7087 11.9863 14.1963C11.9742 14.2248 11.9613 14.2537 11.9453 14.2812C11.9295 14.3083 11.9111 14.3331 11.8926 14.3574C11.7639 14.6052 11.6904 14.8861 11.6904 15.1846C11.6905 16.1773 12.4955 16.9824 13.4883 16.9824C14.4808 16.9822 15.286 16.1771 15.2861 15.1846C15.2861 14.1919 14.4809 13.387 13.4883 13.3867ZM3.29785 7.44336C2.30513 7.44336 1.50014 8.24853 1.5 9.24121C1.50012 10.2339 2.30512 11.0391 3.29785 11.0391C3.95618 11.0389 4.52964 10.6835 4.84277 10.1553C4.84463 10.152 4.84672 10.1488 4.84863 10.1455C4.85208 10.1396 4.85579 10.1337 4.85938 10.1279C5.00837 9.86607 5.09567 9.56394 5.0957 9.24121C5.09556 8.24871 4.29032 7.44366 3.29785 7.44336ZM13.4883 1.5C12.4956 1.5 11.6906 2.3052 11.6904 3.29785C11.6905 3.61907 11.7752 3.92062 11.9229 4.18164C11.9271 4.18844 11.9325 4.19517 11.9365 4.20215C11.9385 4.20554 11.9395 4.20948 11.9414 4.21289C12.2546 4.74118 12.8298 5.0957 13.4883 5.0957C14.4808 5.09544 15.286 4.2904 15.2861 3.29785C15.2859 2.30536 14.4808 1.50026 13.4883 1.5Z" fill="#58595B"/>
</svg>
