<svg width="22" height="15" viewBox="0 0 22 15" fill="none" xmlns="http://www.w3.org/2000/svg">
<path d="M10.5866 0C4.5899 0 0 3.09238 0 7.21C0 11.1921 4.47287 14.42 10.5866 14.42C16.7004 14.42 21.1733 11.192 21.1733 7.21C21.1733 3.09238 16.5832 0 10.5866 0ZM17.1878 3.09238C17.4084 3.98119 16.3732 5.09221 13.0418 5.45547C12.8201 3.19185 12.1487 1.27933 11.036 0.87434C12.534 0.916533 13.954 1.17 15.1921 1.61902C16.3498 2.05573 17.0692 2.61301 17.1878 3.09238ZM12.2534 7.1752C12.2534 10.0434 11.392 11.2321 10.5866 11.2321C9.78128 11.2321 8.91988 10.0434 8.91988 7.1752L8.92003 7.14532C9.45529 7.1906 10.0124 7.21431 10.5866 7.21431C11.1609 7.21431 11.718 7.1906 12.2532 7.14532L12.2534 7.1752ZM10.586 5.5765C10.0243 5.5765 9.50472 5.56049 9.02428 5.53092C9.27728 3.65535 9.94944 2.56512 10.5865 2.56512C11.2235 2.56512 11.8957 3.65535 12.1487 5.53092C11.6682 5.56064 11.1484 5.5765 10.586 5.5765ZM3.98442 3.09238C4.103 2.61548 4.81534 2.06143 5.9627 1.62549C7.20492 1.17215 8.63192 0.916533 10.1358 0.874032C9.02289 1.27902 8.35166 3.19154 8.12977 5.45516C4.79779 5.09206 3.76222 3.98104 3.98289 3.09207L3.98442 3.09238ZM1.56112 6.95022C1.56112 5.73603 1.96765 4.68661 2.67522 3.81781C2.76685 5.42775 4.94454 6.62839 8.04969 7.05001L8.04923 7.17535C8.04923 11.0597 9.04507 13.1188 10.1488 13.5443C5.40865 13.374 1.56097 10.4542 1.56097 6.95053L1.56112 6.95022ZM11.0049 13.5446C12.1163 13.1008 13.124 10.8914 13.124 7.1752L13.1236 7.04985C16.2287 6.62839 18.4064 5.42775 18.498 3.81766C19.2055 4.68645 19.6121 5.73588 19.6121 6.95007C19.6121 10.4587 15.754 13.3815 11.0049 13.5446Z" fill="white"/>
</svg>
