<svg width="14" height="12" viewBox="0 0 14 12" fill="none" xmlns="http://www.w3.org/2000/svg">
<path d="M13.8832 4.00374L10.6163 0.163797C10.5727 0.112488 10.5189 0.0713406 10.4585 0.0430969C10.3981 0.0148531 10.3326 0.000161243 10.2663 0H3.73254C3.66623 0.000161243 3.60072 0.0148531 3.54036 0.0430969C3.48001 0.0713406 3.4262 0.112488 3.38252 0.163797L0.115624 4.00374C0.0394101 4.09323 -0.00177379 4.20864 5.86205e-05 4.3276C0.00189104 4.44655 0.0466091 4.56056 0.125541 4.64753L6.65933 11.8474C6.70299 11.8956 6.75583 11.934 6.81454 11.9602C6.87325 11.9865 6.93658 12 7.0006 12C7.06462 12 7.12795 11.9865 7.18666 11.9602C7.24537 11.934 7.2982 11.8956 7.34187 11.8474L13.8757 4.64753C13.9543 4.56026 13.9986 4.44608 14 4.32713C14.0014 4.20818 13.9598 4.09294 13.8832 4.00374ZM12.5047 3.83994H10.033L7.93283 0.959985H10.0546L12.5047 3.83994ZM3.88305 4.79992L5.64076 9.31965L1.53964 4.79992H3.88305ZM9.11008 4.79992L6.99943 10.2274L4.88879 4.79992H9.11008ZM5.13264 3.83994L6.99943 1.27978L8.86623 3.83994H5.13264ZM10.1158 4.79992H12.4592L8.35811 9.31965L10.1158 4.79992ZM3.9443 0.959985H6.06603L3.96589 3.83994H1.49414L3.9443 0.959985Z" fill="white"/>
</svg>
